<?xml version="1.0" encoding="UTF-8" standalone="no"?>
<svg id="svg2" stroke-linejoin="round" xmlns:rdf="http://www.w3.org/1999/02/22-rdf-syntax-ns#" xmlns="http://www.w3.org/2000/svg" fill-rule="evenodd" xml:space="preserve" stroke-linecap="round" height="100%" viewBox="0 0 180.31222 204.30116" width="100%" version="1.1" xmlns:cc="http://creativecommons.org/ns#" xmlns:dc="http://purl.org/dc/elements/1.1/"><metadata id="metadata1015"><rdf:RDF><cc:Work rdf:about=""><dc:format>image/svg+xml</dc:format><dc:type rdf:resource="http://purl.org/dc/dcmitype/StillImage"/><dc:title/></cc:Work></rdf:RDF></metadata>
<defs id="defs4">
</defs>
<rect id="rect5377" style="stroke-dasharray:none;" height="182.1" width="142.27" stroke="#000" stroke-miterlimit="4" y="22.024" x="37.865" stroke-width="0.35433" fill="#008f00"/><g id="text957" font-size="21.91907501px" fill="#b6b6b6" transform="translate(-278.19493,-172.67581)"><path id="path3082" d="m284.6,190.94c-0.9347,0-1.7517-0.12129-2.4509-0.36389-0.69924-0.24973-1.295-0.61719-1.7873-1.1024-0.55655-0.55654-0.94898-1.2201-1.1773-1.9907-0.22832-0.77772-0.34249-1.7338-0.34248-2.8683v-9.9428h2.1191v9.9428c0,0.73492,0.0464,1.3557,0.13914,1.8623,0.0928,0.49946,0.2747,0.94897,0.54584,1.3485,0.2854,0.42811,0.67069,0.75276,1.1559,0.97395,0.49232,0.22119,1.0917,0.33178,1.798,0.33178,0.66356,0,1.2522-0.11059,1.7659-0.33178,0.51372-0.22119,0.91329-0.54584,1.1987-0.97395,0.26399-0.40669,0.44237-0.85621,0.53514-1.3485,0.0999-0.49232,0.14982-1.0952,0.14984-1.8088v-9.9963h2.1191v9.9428c-0.00001,1.106-0.11417,2.0549-0.34248,2.8469-0.2212,0.792-0.61363,1.4627-1.1773,2.0121-0.50661,0.49232-1.0988,0.85978-1.7766,1.1024-0.67071,0.2426-1.4948,0.36389-2.4723,0.36389"/><path id="path3084" d="m302.66,190.61-2.0121,0,0-6.8069c-0.00001-0.5494-0.0285-1.0596-0.0856-1.5305-0.05-0.47805-0.14985-0.85978-0.29968-1.1452-0.16411-0.29966-0.39243-0.52085-0.68497-0.66356-0.29254-0.14983-0.69211-0.22475-1.1987-0.22476-0.49946,0.00001-1.0168,0.13558-1.5519,0.4067-0.52801,0.26401-1.0453,0.61006-1.5519,1.0382v8.926h-2.0121v-11.955h2.0121v1.3271c0.59934-0.53512,1.1916-0.94539,1.7766-1.2308,0.58508-0.2854,1.2023-0.4281,1.8516-0.42811,1.1773,0.00001,2.0977,0.38888,2.7613,1.1666,0.66356,0.7706,0.99534,1.8908,0.99535,3.3606v7.7594"/><path id="path3086" d="m307.56,190.61-2.0121,0,0-11.955,2.0121,0,0,11.955m0.13913-13.956-2.2904,0,0-2.087,2.2904,0,0,2.087"/><path id="path3088" d="m319.91,178.66-4.5058,11.955-1.8088,0-4.4737-11.955,2.1726,0,3.275,9.2257,3.2429-9.2257,2.0977,0"/><path id="path3090" d="m326.45,190.89c-1.9051,0-3.3856-0.53513-4.4416-1.6054-1.0489-1.0774-1.5733-2.6043-1.5733-4.5808-0.00001-1.9479,0.51015-3.4962,1.5305-4.645,1.0203-1.1559,2.3546-1.7338,4.0028-1.7338,0.74204,0.00001,1.3985,0.10704,1.9693,0.32108,0.5708,0.21407,1.0703,0.54942,1.4984,1.006,0.4281,0.45666,0.75632,1.0168,0.98465,1.6803,0.22831,0.65644,0.34247,1.4627,0.34248,2.4188v1.0917h-8.2839c-0.00001,1.3914,0.34961,2.4545,1.0489,3.1894,0.69923,0.73491,1.666,1.1024,2.9004,1.1024,0.44237,0,0.87405-0.0499,1.295-0.14984,0.42809-0.0999,0.81339-0.22832,1.1559-0.38529,0.36389-0.16411,0.6707-0.32108,0.92043-0.47092,0.24972-0.15697,0.45664-0.30324,0.62076-0.43881h0.11773v2.194c-0.23547,0.0927-0.52801,0.21048-0.87762,0.35319-0.34963,0.13556-0.66358,0.24259-0.94184,0.32108-0.39244,0.10702-0.74919,0.18908-1.0703,0.24616-0.31396,0.0571-0.71352,0.0856-1.1987,0.0856m2.3546-7.5882c-0.0143-0.54226-0.0785-1.0096-0.19265-1.402-0.11417-0.39242-0.27828-0.7242-0.49233-0.99535-0.23546-0.29966-0.5387-0.52798-0.90972-0.68497-0.3639-0.15696-0.81698-0.23544-1.3592-0.23546-0.53514,0.00002-0.99179,0.0821-1.3699,0.24617-0.37103,0.15698-0.70995,0.38887-1.0168,0.69567-0.29968,0.31395-0.528,0.66357-0.68497,1.0489-0.15697,0.37817-0.25687,0.82055-0.29967,1.3271h6.3253"/><path id="path3092" d="m339.15,180.82-0.10703,0c-0.14984-0.0428-0.31038-0.0678-0.48162-0.0749-0.16411-0.0143-0.36389-0.0214-0.59935-0.0214-0.54227,0.00001-1.081,0.11774-1.6161,0.35319-0.53514,0.23547-1.0417,0.58509-1.5198,1.0489v8.4872h-2.0121v-11.955h2.0121v1.7766c0.73491-0.64929,1.3735-1.1059,1.9158-1.37,0.5494-0.27112,1.081-0.40668,1.5947-0.4067,0.20691,0.00002,0.36031,0.007,0.46021,0.0214,0.10702,0.007,0.22475,0.0214,0.35319,0.0428v2.0977"/><path id="path3094" d="m343.97,190.9c-0.79914,0-1.5483-0.10703-2.2476-0.32108-0.69211-0.21405-1.2665-0.44238-1.7231-0.68497v-2.2583h0.10703c0.17124,0.13557,0.37102,0.2854,0.59935,0.44951,0.23545,0.16411,0.54583,0.33535,0.93113,0.51373,0.34248,0.15697,0.71707,0.29611,1.1238,0.4174,0.41383,0.1213,0.84194,0.18195,1.2843,0.18195,0.32107,0,0.66356-0.0357,1.0275-0.10703,0.36388-0.0785,0.63502-0.17481,0.8134-0.28897,0.24972-0.16411,0.4281-0.33892,0.53513-0.52443,0.11416-0.18551,0.17124-0.46378,0.17125-0.83481-0.00001-0.47805-0.13201-0.83837-0.396-1.081-0.25687-0.24259-0.71709-0.44594-1.3806-0.61005-0.25687-0.0642-0.59222-0.13913-1.006-0.22476-0.41384-0.0856-0.79557-0.17837-1.1452-0.27827-0.91329-0.26399-1.5769-0.67069-1.9907-1.2201-0.41384-0.55654-0.62076-1.2272-0.62076-2.0121,0-1.0774,0.4067-1.955,1.2201-2.6328,0.8134-0.67783,1.8944-1.0168,3.2429-1.0168,0.66356,0.00001,1.3307,0.0821,2.0014,0.24616,0.67069,0.16412,1.2344,0.37104,1.691,0.62076v2.1512h-0.10703c-0.51373-0.4067-1.0881-0.72778-1.7231-0.96325-0.62789-0.23544-1.2629-0.35317-1.9051-0.35318-0.66357,0.00001-1.2237,0.13914-1.6803,0.4174-0.45665,0.27828-0.68498,0.69925-0.68497,1.2629-0.00001,0.49946,0.13556,0.87406,0.4067,1.1238,0.27113,0.2426,0.70637,0.44238,1.3057,0.59935,0.29967,0.0785,0.63146,0.15698,0.99535,0.23546,0.37102,0.0714,0.75989,0.15697,1.1666,0.25686,0.88475,0.22119,1.5483,0.58865,1.9907,1.1024,0.4495,0.51374,0.67426,1.213,0.67427,2.0977-0.00001,0.51373-0.10347,1.0025-0.31038,1.4663-0.19979,0.45665-0.4959,0.84908-0.88832,1.1773-0.42811,0.35676-0.9133,0.62789-1.4556,0.8134-0.53514,0.18551-1.2094,0.27827-2.0228,0.27827"/><path id="path3096" d="m352.6,190.61-2.0121,0,0-11.955,2.0121,0,0,11.955m0.13913-13.956-2.2904,0,0-2.087,2.2904,0,0,2.087"/><path id="path3098" d="m359.21,190.85c-1.0988,0-1.955-0.31038-2.5686-0.93113-0.61362-0.62789-0.92043-1.6161-0.92043-2.9646v-6.625h-1.3592v-1.6696h1.3592v-3.4356h2.0121v3.4356h3.7031v1.6696h-3.7031v5.6831c0,0.60649,0.0107,1.0738,0.0321,1.402,0.0214,0.32822,0.10346,0.63503,0.24616,0.92043,0.1213,0.24973,0.31751,0.43881,0.58865,0.56724,0.27113,0.1213,0.63859,0.18195,1.1024,0.18195,0.32821,0,0.64572-0.0464,0.95253-0.13914,0.30681-0.0999,0.528-0.18194,0.66357-0.24616h0.11773v1.8088c-0.37817,0.10703-0.76346,0.18908-1.1559,0.24616-0.3853,0.0642-0.74206,0.0963-1.0703,0.0963"/><path id="path3100" d="m369.59,187.67,0-3.3178c-0.47806,0.0428-1.0845,0.10346-1.8194,0.18194-0.72779,0.0714-1.3164,0.17482-1.7659,0.31038-0.53514,0.16411-0.97752,0.41741-1.3271,0.75989-0.34963,0.33535-0.52444,0.80627-0.52443,1.4128-0.00001,0.68498,0.19264,1.2023,0.57794,1.5519,0.38529,0.34962,0.94897,0.52443,1.691,0.52443,0.63502,0,1.2094-0.13557,1.7231-0.4067,0.51372-0.27827,0.99534-0.61719,1.4449-1.0168m0,1.6696c-0.16411,0.1213-0.3853,0.29254-0.66356,0.51373-0.27114,0.21405-0.53514,0.3853-0.792,0.51373-0.35676,0.18551-0.70282,0.32821-1.0382,0.4281-0.32822,0.0999-0.792,0.14984-1.3914,0.14984-0.49232,0-0.95967-0.0927-1.402-0.27827-0.44238-0.18551-0.83124-0.44594-1.1666-0.78129-0.32108-0.32822-0.57794-0.73135-0.77059-1.2094-0.19265-0.48519-0.28897-0.99535-0.28897-1.5305,0-0.82767,0.17481-1.5305,0.52443-2.1084,0.34962-0.58508,0.90259-1.0489,1.6589-1.3914,0.6707-0.3068,1.4627-0.51729,2.376-0.63146,0.91328-0.12129,1.8979-0.21048,2.9539-0.26757v-0.38529c0-0.47091-0.0714-0.84907-0.21405-1.1345-0.14271-0.29253-0.34249-0.51728-0.59935-0.67426-0.25687-0.1641-0.57082-0.27113-0.94184-0.32108-0.37103-0.0571-0.75276-0.0856-1.1452-0.0856-0.46379,0.00002-1.0096,0.0714-1.6375,0.21406-0.62789,0.13558-1.2558,0.33536-1.8837,0.59935h-0.11773v-2.0442c0.37102-0.10702,0.90259-0.22475,1.5947-0.35319,0.6921-0.12842,1.3771-0.19264,2.0549-0.19265,0.82053,0.00001,1.5126,0.0642,2.0763,0.19265,0.56367,0.12844,1.0703,0.36033,1.5198,0.69567,0.43523,0.32823,0.75988,0.75277,0.97394,1.2736,0.21405,0.52087,0.32107,1.1559,0.32108,1.9051v8.1768h-2.0014v-1.2736m-0.98464-12.661-1.5947,0-2.9218-4.0028,2.6008,0,1.9158,4.0028"/><path id="path3102" d="m390.48,190.61-2.0121,0,0-1.2201c-0.31396,0.264-0.58509,0.48163-0.81341,0.65287-0.22833,0.17124-0.4959,0.32821-0.8027,0.47092-0.28541,0.13556-0.58152,0.23902-0.88832,0.31037-0.30682,0.0785-0.66357,0.11773-1.0703,0.11773-0.6493,0-1.2522-0.13557-1.8088-0.4067-0.54941-0.27113-1.0168-0.66713-1.402-1.188-0.39243-0.52799-0.69567-1.1773-0.90973-1.9479-0.21405-0.77773-0.32108-1.6696-0.32108-2.6757,0-1.0489,0.13557-1.955,0.4067-2.7185,0.27114-0.77058,0.64573-1.4413,1.1238-2.0121,0.43523-0.52085,0.95967-0.92756,1.5733-1.2201,0.62075-0.29966,1.27-0.4495,1.9479-0.44951,0.59935,0.00001,1.1202,0.0678,1.5626,0.20335,0.44236,0.12845,0.90971,0.3318,1.402,0.61005v-5.1801h2.0121v16.653m-2.0121-2.9111,0-6.8925c-0.49947-0.24258-0.94898-0.41026-1.3485-0.50302-0.39244-0.0927-0.82055-0.13913-1.2843-0.13914-1.0346,0.00001-1.8444,0.38887-2.4295,1.1666-0.58508,0.7706-0.87762,1.8872-0.87762,3.3499,0,1.4056,0.22475,2.483,0.67427,3.2322,0.44951,0.74205,1.1702,1.1131,2.1619,1.1131,0.52799,0.00001,1.0596-0.11772,1.5947-0.35318,0.53512-0.2426,1.0382-0.56724,1.5091-0.97395"/><path id="path3104" d="m395.45,190.61-2.0121,0,0-11.955,2.0121,0,0,11.955m0.13914-13.956-2.2904,0,0-2.087,2.2904,0,0,2.087"/><path id="path3106" d="m417.75,190.61-2.7506,0-5.0517-6.336-2.4188,0,0,6.336-2.1191,0,0-15.936,4.1098,0c0.91329,0.00001,1.6767,0.05,2.2904,0.14984,0.62075,0.0999,1.2094,0.33179,1.7659,0.69567,0.55653,0.35677,0.99534,0.81699,1.3164,1.3806,0.3282,0.56369,0.49231,1.2629,0.49232,2.0977-0.00001,1.1702-0.29612,2.1477-0.88832,2.9325-0.59222,0.78487-1.3985,1.3664-2.4188,1.7445l5.6724,6.9353m-4.5807-11.452c-0.00001-0.46377-0.0821-0.87404-0.24616-1.2308-0.16412-0.36388-0.41742-0.65998-0.75989-0.88832-0.29969-0.19977-0.64931-0.3389-1.0489-0.4174-0.39958-0.0856-0.89547-0.12842-1.4877-0.12844h-2.0977v6.0149h1.8623c0.60648,0,1.1523-0.0535,1.6375-0.16054,0.48518-0.10702,0.89902-0.32821,1.2415-0.66357,0.30681-0.29967,0.53156-0.65642,0.67427-1.0703,0.14983-0.41382,0.22475-0.89901,0.22476-1.4556"/><path id="path3108" d="m428.32,184.64c-0.00001,2.0121-0.4852,3.5676-1.4556,4.6664-0.97038,1.0917-2.2618,1.6375-3.8744,1.6375-1.6625,0-2.9718-0.56367-3.9279-1.691-0.94898-1.1345-1.4235-2.6721-1.4235-4.6128,0-1.9978,0.48875-3.5497,1.4663-4.6557,0.98464-1.1059,2.2797-1.6589,3.8851-1.6589,1.6125,0.00001,2.904,0.55298,3.8744,1.6589,0.97037,1.0988,1.4556,2.6507,1.4556,4.6557m-2.0763,0c-0.00001-1.5483-0.28185-2.6971-0.84551-3.4463-0.56368-0.75632-1.3664-1.1345-2.4081-1.1345-1.0489,0.00001-1.8587,0.37817-2.4295,1.1345-0.56368,0.74919-0.84551,1.898-0.84551,3.4463,0,1.4984,0.28183,2.6364,0.84551,3.4142,0.5708,0.77059,1.3806,1.1559,2.4295,1.1559,1.0346,0,1.8337-0.37816,2.3974-1.1345,0.57081-0.76346,0.85621-1.9086,0.85622-3.4356"/><path id="path3110" d="m443.95,190.61,0-6.9139c-0.00001-0.54939-0.0214-1.056-0.0642-1.5198-0.0428-0.47091-0.13202-0.83836-0.26757-1.1024-0.14272-0.2854-0.34607-0.49588-0.61005-0.63146-0.26402-0.13556-0.62077-0.20334-1.0703-0.20335-0.41385,0.00001-0.85979,0.12844-1.3378,0.3853-0.47093,0.24973-0.95969,0.61362-1.4663,1.0917,0.007,0.1213,0.0143,0.26757,0.0214,0.43881,0.0143,0.16411,0.0214,0.36033,0.0214,0.58864v7.8665h-2.0121v-6.9139c-0.00001-0.54939-0.0214-1.056-0.0642-1.5198-0.0428-0.47091-0.13201-0.83836-0.26756-1.1024-0.14271-0.2854-0.34607-0.49588-0.61006-0.63146-0.264-0.13556-0.62076-0.20334-1.0703-0.20335-0.43525,0.00001-0.8919,0.13558-1.37,0.4067-0.47805,0.27114-0.94184,0.6172-1.3913,1.0382v8.926h-2.0121v-11.955h2.0121v1.3271c0.52799-0.52798,1.0488-0.93468,1.5626-1.2201,0.52085-0.29253,1.0917-0.4388,1.7124-0.43881,0.70637,0.00001,1.3307,0.16055,1.873,0.48162,0.5494,0.32109,0.9668,0.84909,1.2522,1.584,0.60648-0.67783,1.1987-1.1916,1.7766-1.5412,0.57793-0.34961,1.2058-0.52442,1.8837-0.52443,0.51371,0.00001,0.98106,0.0821,1.402,0.24616,0.42096,0.15699,0.78841,0.41385,1.1024,0.77059,0.32107,0.36391,0.56723,0.81699,0.73849,1.3592,0.17836,0.54228,0.26755,1.2237,0.26757,2.0442v7.8665h-2.0121"/><path id="path3112" d="m455.47,187.67,0-3.3178c-0.47806,0.0428-1.0845,0.10346-1.8194,0.18194-0.72779,0.0714-1.3164,0.17482-1.7659,0.31038-0.53514,0.16411-0.97752,0.41741-1.3271,0.75989-0.34962,0.33535-0.52443,0.80627-0.52443,1.4128,0,0.68498,0.19265,1.2023,0.57795,1.5519,0.38529,0.34962,0.94896,0.52443,1.691,0.52443,0.63502,0,1.2094-0.13557,1.7231-0.4067,0.51372-0.27827,0.99534-0.61719,1.4449-1.0168m0,1.6696c-0.16411,0.1213-0.3853,0.29254-0.66356,0.51373-0.27115,0.21405-0.53515,0.3853-0.792,0.51373-0.35676,0.18551-0.70282,0.32821-1.0382,0.4281-0.32822,0.0999-0.792,0.14984-1.3914,0.14984-0.49233,0-0.95968-0.0927-1.402-0.27827-0.44238-0.18551-0.83124-0.44594-1.1666-0.78129-0.32108-0.32822-0.57795-0.73135-0.77059-1.2094-0.19265-0.48519-0.28898-0.99535-0.28898-1.5305,0-0.82767,0.17481-1.5305,0.52444-2.1084,0.34961-0.58508,0.90259-1.0489,1.6589-1.3914,0.6707-0.3068,1.4627-0.51729,2.376-0.63146,0.91329-0.12129,1.8979-0.21048,2.9539-0.26757v-0.38529c-0.00001-0.47091-0.0714-0.84907-0.21405-1.1345-0.14271-0.29253-0.3425-0.51728-0.59935-0.67426-0.25687-0.1641-0.57082-0.27113-0.94184-0.32108-0.37103-0.0571-0.75276-0.0856-1.1452-0.0856-0.46379,0.00002-1.0096,0.0714-1.6375,0.21406-0.6279,0.13558-1.2558,0.33536-1.8837,0.59935h-0.11773v-2.0442c0.37102-0.10702,0.90259-0.22475,1.5947-0.35319,0.6921-0.12842,1.3771-0.19264,2.0549-0.19265,0.82053,0.00001,1.5126,0.0642,2.0763,0.19265,0.56366,0.12844,1.0703,0.36033,1.5198,0.69567,0.43523,0.32823,0.75988,0.75277,0.97394,1.2736,0.21404,0.52087,0.32107,1.1559,0.32108,1.9051v8.1768h-2.0014v-1.2736"/></g><g id="layer5" transform="translate(-278.19493,-172.67581)"><g id="text983" font-size="22.2901268px" fill="#FFF"><path id="path3135" d="m345.32,372.15,0-14.29-5.4419,0,0-1.9156,13.039,0,0,1.9156-5.4419,0,0,14.29-2.155,0"/><path id="path3137" d="m362.12,366.08c-0.00001,2.0462-0.49341,3.628-1.4802,4.7454-0.98681,1.1102-2.3001,1.6652-3.94,1.6652-1.6906,0-3.0221-0.57321-3.9944-1.7196-0.96503-1.1537-1.4476-2.7173-1.4476-4.6909,0-2.0316,0.49703-3.6098,1.4911-4.7345,1.0013-1.1246,2.3182-1.687,3.9508-1.687,1.6398,0.00002,2.9531,0.56235,3.94,1.687,0.98679,1.1174,1.4802,2.6956,1.4802,4.7345m-2.1115,0c-0.00001-1.5745-0.28662-2.7427-0.85983-3.5046-0.57322-0.76912-1.3895-1.1537-2.4489-1.1537-1.0666,0.00001-1.8902,0.38457-2.4706,1.1537-0.57322,0.76187-0.85983,1.9301-0.85982,3.5046-0.00001,1.5237,0.2866,2.681,0.85982,3.4719,0.58047,0.78364,1.404,1.1755,2.4706,1.1755,1.0521,0,1.8648-0.38456,2.438-1.1537,0.58046-0.77638,0.8707-1.941,0.87071-3.4937"/><path id="path3139" d="m370.67,362.19-0.10884,0c-0.15238-0.0435-0.31564-0.0689-0.48978-0.0762-0.16689-0.0145-0.37005-0.0217-0.60949-0.0218-0.55146,0.00001-1.0993,0.11973-1.6435,0.35916-0.5442,0.23946-1.0594,0.595-1.5455,1.0666v8.6309h-2.0462v-12.157h2.0462v1.8067c0.74735-0.66027,1.3968-1.1246,1.9482-1.3931,0.5587-0.27571,1.0993-0.41358,1.6217-0.41359,0.21042,0.00001,0.36642,0.007,0.46801,0.0218,0.10883,0.007,0.22855,0.0218,0.35917,0.0435v2.1332"/><path id="path3141" d="m391.15,355.94-5.5725,16.206-2.3291,0-5.5725-16.206,2.3074,0,4.4842,13.452,4.4842-13.452,2.1985,0"/><path id="path3143" d="m396.84,372.43c-1.9373,0-3.4429-0.54419-4.5168-1.6326-1.0666-1.0956-1.5999-2.6484-1.5999-4.6583,0-1.9808,0.5188-3.5554,1.5564-4.7236,1.0376-1.1754,2.3944-1.7632,4.0706-1.7632,0.75461,0.00002,1.4222,0.10885,2.0026,0.32652,0.58047,0.21769,1.0884,0.55871,1.5237,1.0231,0.43535,0.46439,0.76912,1.034,1.0013,1.7088,0.23217,0.66755,0.34827,1.4875,0.34828,2.4598v1.1102h-8.4241c0,1.4149,0.35553,2.496,1.0666,3.2434,0.71107,0.74736,1.6942,1.121,2.9495,1.121,0.44986,0,0.88884-0.0508,1.317-0.15237,0.43534-0.10158,0.82716-0.23219,1.1754-0.39182,0.37004-0.16688,0.68205-0.32651,0.93601-0.47889,0.25395-0.15963,0.46437-0.30837,0.63127-0.44624h0.11972v2.2312c-0.23946,0.0943-0.53695,0.21405-0.89248,0.35917-0.35555,0.13786-0.67481,0.2467-0.95778,0.32651-0.39908,0.10884-0.76187,0.19229-1.0884,0.25033-0.31927,0.0581-0.7256,0.0871-1.219,0.0871m2.3944-7.7166c-0.0145-0.55144-0.0798-1.0267-0.1959-1.4258-0.11611-0.39907-0.28299-0.73647-0.50066-1.0122-0.23945-0.30474-0.54783-0.53693-0.92513-0.69657-0.37006-0.15961-0.83081-0.23943-1.3822-0.23944-0.5442,0.00001-1.0086,0.0834-1.3931,0.25033-0.37731,0.15964-0.72197,0.39546-1.034,0.70745-0.30475,0.31927-0.53694,0.67481-0.69656,1.0666-0.15964,0.38457-0.26122,0.83443-0.30475,1.3496h6.4324"/><path id="path3145" d="m409.76,362.19-0.10884,0c-0.15238-0.0435-0.31564-0.0689-0.48977-0.0762-0.16689-0.0145-0.37006-0.0217-0.6095-0.0218-0.55145,0.00001-1.0993,0.11973-1.6435,0.35916-0.54419,0.23946-1.0594,0.595-1.5455,1.0666v8.6309h-2.0462v-12.157h2.0462v1.8067c0.74735-0.66027,1.3968-1.1246,1.9482-1.3931,0.55869-0.27571,1.0993-0.41358,1.6217-0.41359,0.21041,0.00001,0.36641,0.007,0.468,0.0218,0.10884,0.007,0.22856,0.0218,0.35917,0.0435v2.1332"/><path id="path3147" d="m418.6,368.85,0-6.6718c-0.50792-0.24669-0.97955-0.42084-1.4149-0.52243-0.42811-0.10883-0.8562-0.16325-1.2843-0.16326-1.0376,0.00001-1.8539,0.38095-2.4489,1.1428-0.59499,0.76188-0.89248,1.8539-0.89248,3.276,0,1.3496,0.22493,2.3763,0.6748,3.0801,0.45712,0.70382,1.1936,1.0557,2.2094,1.0557,0.52968,0,1.0739-0.10521,1.6326-0.31563,0.56595-0.21042,1.0739-0.50428,1.5237-0.88159m-6.8786,5.246c0.13786,0.058,0.34102,0.13424,0.60949,0.22856,0.26847,0.10158,0.57321,0.19591,0.91425,0.28298,0.3773,0.0943,0.72558,0.17052,1.0448,0.22857,0.31926,0.058,0.66754,0.0871,1.0448,0.0871,0.63126-0.00001,1.1646-0.0835,1.5999-0.25033,0.4426-0.16689,0.78726-0.39908,1.034-0.69657,0.23218-0.29749,0.39543-0.64215,0.48977-1.034,0.0943-0.39182,0.14148-0.83806,0.14149-1.3387v-1.0666c-0.55146,0.47889-1.092,0.83443-1.6217,1.0666-0.52969,0.22493-1.1936,0.3374-1.9918,0.3374-1.3859,0-2.4888-0.51517-3.3087-1.5455-0.81992-1.0303-1.2299-2.5105-1.2299-4.4406-0.00001-1.0086,0.14148-1.901,0.42447-2.6774,0.28297-0.78363,0.66391-1.4476,1.1428-1.9918,0.45712-0.52241,0.99768-0.92511,1.6217-1.2081,0.62401-0.28296,1.2698-0.42445,1.9373-0.42447,0.63126,0.00002,1.1754,0.0762,1.6326,0.22856,0.46437,0.14513,0.92874,0.35555,1.3931,0.63127l0.11972-0.52243h1.9264v10.775c-0.00001,2.0607-0.44987,3.5735-1.3496,4.5386-0.89974,0.96503-2.2747,1.4476-4.125,1.4476-0.59499,0-1.2045-0.0472-1.8285-0.14149-0.61675-0.0943-1.1936-0.22131-1.7305-0.38093v-2.1332h0.10884"/><path id="path3149" d="m430.4,369.16,0-3.374c-0.48615,0.0435-1.1029,0.10522-1.8502,0.18503-0.74011,0.0726-1.3387,0.17777-1.7958,0.31563-0.54419,0.16689-0.99406,0.42447-1.3496,0.77275-0.35555,0.34103-0.53332,0.81992-0.53331,1.4367-0.00001,0.69657,0.1959,1.2226,0.58773,1.5782,0.39181,0.35554,0.96503,0.53331,1.7196,0.53331,0.64577,0,1.2299-0.13786,1.7523-0.41359,0.52242-0.28298,1.0122-0.62763,1.4693-1.034m0,1.6979c-0.16689,0.12335-0.39182,0.29749-0.6748,0.52242-0.27573,0.21768-0.54419,0.39182-0.8054,0.52243-0.3628,0.18865-0.71471,0.33377-1.0557,0.43535-0.33378,0.10158-0.80541,0.15237-1.4149,0.15237-0.50067,0-0.97593-0.0943-1.4258-0.28298-0.44987-0.18865-0.84531-0.45349-1.1863-0.79452-0.32652-0.33377-0.58773-0.74373-0.78364-1.2299-0.19591-0.4934-0.29386-1.0122-0.29386-1.5564,0-0.84168,0.17777-1.5564,0.53331-2.1441,0.35554-0.59498,0.91787-1.0666,1.687-1.4149,0.68205-0.312,1.4874-0.52605,2.4162-0.64215,0.92875-0.12334,1.9301-0.21404,3.0039-0.2721v-0.39182c0-0.47888-0.0726-0.86344-0.21767-1.1537-0.14513-0.29749-0.34829-0.52605-0.6095-0.68569-0.26122-0.16687-0.58048-0.27571-0.95778-0.32651-0.37731-0.058-0.7655-0.0871-1.1646-0.0871-0.47164,0.00001-1.0267,0.0726-1.6652,0.21767-0.63852,0.13788-1.277,0.34104-1.9156,0.6095h-0.11972v-2.0788c0.37731-0.10882,0.91787-0.22854,1.6217-0.35916,0.70382-0.1306,1.4004-0.1959,2.0897-0.19591,0.83443,0.00001,1.5382,0.0653,2.1115,0.19591,0.57321,0.13062,1.0884,0.36643,1.5455,0.70745,0.4426,0.33378,0.77274,0.76551,0.99043,1.2952,0.21766,0.52969,0.3265,1.1755,0.32651,1.9373v8.3153h-2.03v-1.2952"/><path id="path3151" d="m438.99,372.39c-1.1174,0-1.9881-0.31563-2.6121-0.9469-0.62401-0.63851-0.93601-1.6435-0.93601-3.0148v-6.7371h-1.3822v-1.6979h1.3822v-3.4937h2.0462v3.4937h3.7658v1.6979h-3.7658v5.7793c0,0.61675,0.0109,1.092,0.0326,1.4258,0.0218,0.33378,0.10521,0.64578,0.25033,0.93601,0.12335,0.25396,0.32289,0.44624,0.59861,0.57685,0.27572,0.12335,0.6494,0.18502,1.121,0.18502,0.33377,0,0.65665-0.0472,0.96866-0.14149,0.312-0.10158,0.53693-0.18502,0.6748-0.25033h0.11972v1.8394c-0.38457,0.10883-0.77638,0.19228-1.1754,0.25032-0.39183,0.0653-0.75462,0.098-1.0884,0.098"/><path id="path3153" d="m449.55,369.16,0-3.374c-0.48615,0.0435-1.1029,0.10522-1.8502,0.18503-0.74011,0.0726-1.3387,0.17777-1.7958,0.31563-0.54419,0.16689-0.99406,0.42447-1.3496,0.77275-0.35554,0.34103-0.53331,0.81992-0.5333,1.4367-0.00001,0.69657,0.1959,1.2226,0.58772,1.5782,0.39182,0.35554,0.96503,0.53331,1.7196,0.53331,0.64577,0,1.2299-0.13786,1.7523-0.41359,0.52242-0.28298,1.0122-0.62763,1.4693-1.034m0,1.6979c-0.16689,0.12335-0.39182,0.29749-0.6748,0.52242-0.27573,0.21768-0.5442,0.39182-0.8054,0.52243-0.3628,0.18865-0.71471,0.33377-1.0557,0.43535-0.33377,0.10158-0.80541,0.15237-1.4149,0.15237-0.50066,0-0.97592-0.0943-1.4258-0.28298-0.44987-0.18865-0.84531-0.45349-1.1863-0.79452-0.32652-0.33377-0.58773-0.74373-0.78364-1.2299-0.19591-0.4934-0.29386-1.0122-0.29386-1.5564,0-0.84168,0.17777-1.5564,0.53331-2.1441,0.35554-0.59498,0.91787-1.0666,1.687-1.4149,0.68206-0.312,1.4875-0.52605,2.4162-0.64215,0.92875-0.12334,1.9301-0.21404,3.0039-0.2721v-0.39182c-0.00001-0.47888-0.0726-0.86344-0.21767-1.1537-0.14513-0.29749-0.3483-0.52605-0.6095-0.68569-0.26122-0.16687-0.58048-0.27571-0.95778-0.32651-0.37731-0.058-0.7655-0.0871-1.1646-0.0871-0.47164,0.00001-1.0267,0.0726-1.6652,0.21767-0.63852,0.13788-1.277,0.34104-1.9156,0.6095h-0.11972v-2.0788c0.3773-0.10882,0.91787-0.22854,1.6217-0.35916,0.70382-0.1306,1.4004-0.1959,2.0897-0.19591,0.83442,0.00001,1.5382,0.0653,2.1115,0.19591,0.57321,0.13062,1.0884,0.36643,1.5455,0.70745,0.4426,0.33378,0.77274,0.76551,0.99043,1.2952,0.21766,0.52969,0.3265,1.1755,0.32651,1.9373v8.3153h-2.03v-1.2952"/></g>
</g><g id="layer8" fill="#FFF" transform="translate(-278.19493,-172.67581)"><path id="polyline979-7" style="stroke-dasharray:none;" d="m342.81,194.72c-0.13364-0.008-6.5632-0.008-6.5108-0.008l-0.0205,5.6334-6.8056-0.001v-5.646h-6.7532v5.646h-6.6592v-5.646h-6.7696l0.0188,5.6474h-6.8438v-5.5h-24.094v90.531c0,26.714,10.448,38.044,19.656,47.25,12.447,12.444,29.931,19.688,47.531,19.688,17.601,0,35.084-7.2435,47.531-19.688s19.714-29.962,19.719-47.562c0.004-17.601,0-90.344,0-90.344h-49.781v5.625h-6.625v-5.625h-6.875v5.625h-6.7188v-5.625zm-40.125,13.5,60.344,0,0,8.4062-60.344,0,0-8.4062zm0.15625,14.969,60.312,0,0,8.4375-60.312,0,0-8.4375zm-0.21875,14.844,60.344,0,0,8.4375-60.344,0,0-8.4375zm0.25,14.938,60.312,0,0,8.4375-60.312,0,0-8.4375zm-0.25,15.062,60.344,0,0,8.4375-60.344,0,0-8.4375zm0.125,14.844,60.344,0,0,8.4062-60.344,0,0-8.4062zm0.125,15.062,60.312,0,0,8.4062-60.312,0,0-8.4062z" stroke="#000" stroke-miterlimit="4" stroke-width="0.35433072" fill="#FFF"/></g></svg>